name analog
datacolumns 19
datarows 37
range 0.4285 0.4465
endheader
time	ground_force_vx	ground_force_vy	ground_force_vz	ground_force_px	ground_force_py	ground_force_pz	l_ground_force_vx	l_ground_force_vy	l_ground_force_vz	l_ground_force_px	l_ground_force_py	l_ground_force_pz	ground_torque_x	ground_torque_y	ground_torque_z	l_ground_torque_x	l_ground_torque_y	l_ground_torque_z
0.4285	-0.0	-0.0	-0.0	-5.807596206665039	31.15111541748047	-397.2921752929688	4.213109016418457	-29.78181266784668	-426.6632690429688	-0.0	-0.0	-0.0	-0.0	-0.0	-0.0	100064.7421875	18537.78515625	-3493.23388671875
0.429	-0.0	-0.0	-0.0	-6.208927631378174	30.94613647460937	-394.9614868164063	4.169406890869141	-29.711048126220703	-425.3703308105469	-0.0	-0.0	-0.0	-0.0	-0.0	-0.0	100093.328125	18453.787109375	-3433.5595703125
0.4295	-0.0	-0.0	-0.0	-6.048378467559815	30.848079681396484	-397.3274536132813	4.107081413269043	-29.878999710083008	-428.7958068847656	-0.0	-0.0	-0.0	-0.0	-0.0	-0.0	99814.1953125	18340.07421875	-3475.36083984375
0.43	-0.0	-0.0	-0.0	-6.42315673828125	30.90125274658203	-396.1609191894531	3.920941829681397	-29.61414909362793	-427.7107543945313	-0.0	-0.0	-0.0	-0.0	-0.0	-0.0	99673.40625	18370.423828125	-3543.61572265625
0.4305	-0.0	-0.0	-0.0	-6.120589733123779	31.194393157958984	-394.9576721191406	4.062951564788818	-29.44645500183105	-427.1172180175781	-0.0	-0.0	-0.0	-0.0	-0.0	-0.0	99624.203125	18791.193359375	-3585.0380859375
0.431	-0.0	-0.0	-0.0	-6.137386322021484	30.518842697143555	-394.4660949707031	3.56622314453125	-29.358226776123047	-426.768310546875	-0.0	-0.0	-0.0	-0.0	-0.0	-0.0	99777.5625	18420.494140625	-3567.580078125
0.4315	-0.0	-0.0	-0.0	-6.201058387756348	30.508039474487305	-395.5975646972656	3.903274536132813	-29.667192459106445	-424.8120727539063	-0.0	-0.0	-0.0	-0.0	-0.0	-0.0	99707.3515625	18700.302734375	-3594.1083984375
0.432	-0.0	-0.0	-0.0	-5.89703893661499	30.6425838470459	-393.5872802734375	4.6568145751953125	-29.62349319458008	-425.6511535644531	-0.0	-0.0	-0.0	-0.0	-0.0	-0.0	99507.4453125	18736.275390625	-3525.233154296875
0.4325	-0.0	-0.0	-0.0	-5.656999588012695	30.749988555908203	-392.9178771972656	4.00099515914917	-30.31986618041992	-426.07135009765625	-0.0	-0.0	-0.0	-0.0	-0.0	-0.0	99559.640625	18508.73828125	-3603.2431640625
0.433	-0.0	-0.0	-0.0	-6.583165168762207	30.6424617767334	-393.6611328125	3.4597206115722656	-29.87970733642578	-425.68695068359375	-0.0	-0.0	-0.0	-0.0	-0.0	-0.0	99772.2265625	18844.52734375	-3674.4091796875
0.4335	-0.0	-0.0	-0.0	-6.601577758789063	30.679330825805664	-392.736083984375	2.8931679725646973	-30.611501693725582	-425.58013916015625	-0.0	-0.0	-0.0	-0.0	-0.0	-0.0	99726.265625	18720.572265625	-3763.95166015625
0.434	-0.0	-0.0	-0.0	-6.545874118804932	30.3507137298584	-391.71331787109375	3.0161666870117188	-29.92291259765625	-426.8690490722656	-0.0	-0.0	-0.0	-0.0	-0.0	-0.0	99570.4609375	18745.66796875	-3737.032470703125
0.4345	-0.0	-0.0	-0.0	-5.850669860839844	29.745508193969727	-392.6992492675781	3.3618788719177246	-29.993009567260746	-425.7236633300781	-0.0	-0.0	-0.0	-0.0	-0.0	-0.0	99864.703125	18786.8125	-3656.957275390625
0.435	-0.0	-0.0	-0.0	-5.319489002227783	30.15408515930176	-392.3829345703125	4.123558521270752	-30.17862892150879	-425.6880187988281	-0.0	-0.0	-0.0	-0.0	-0.0	-0.0	100066.1640625	18608.232421875	-3564.41748046875
0.4355	-0.0	-0.0	-0.0	-5.362014293670654	29.868059158325195	-391.78802490234375	4.337620258331299	-30.09019088745117	-428.09613037109375	-0.0	-0.0	-0.0	-0.0	-0.0	-0.0	100254.1640625	18596.5546875	-3419.00146484375
0.436	-0.0	-0.0	-0.0	-5.254019737243652	29.699207305908203	-391.9925231933594	4.099145412445068	-29.764408111572266	-428.5403442382813	-0.0	-0.0	-0.0	-0.0	-0.0	-0.0	100225.3359375	18381.00390625	-3462.998779296875
0.4365	-0.0	-0.0	-0.0	-5.399825572967529	29.78841590881348	-392.3455505371094	4.276644229888916	-29.72751808166504	-428.4664916992188	-0.0	-0.0	-0.0	-0.0	-0.0	-0.0	100418.546875	18402.998046875	-3531.432373046875
0.437	-0.0	-0.0	-0.0	-5.751293659210205	29.41303253173828	-392.1047668457031	3.7630608081817623	-29.42038345336914	-427.2883605957031	-0.0	-0.0	-0.0	-0.0	-0.0	-0.0	100011.4296875	18441.947265625	-3428.60302734375
0.4375	-0.0	-0.0	-0.0	-5.343131065368652	29.750572204589844	-391.6013488769531	4.65505313873291	-29.0949649810791	-427.1225280761719	-0.0	-0.0	-0.0	-0.0	-0.0	-0.0	100041.8359375	18154.3671875	-3338.923095703125
0.438	-0.0	-0.0	-0.0	-5.365532398223877	29.295312881469727	-390.4526672363281	4.762295246124268	-29.490121841430664	-428.6476440429688	-0.0	-0.0	-0.0	-0.0	-0.0	-0.0	100273.21875	18335.15234375	-3338.998779296875
0.4385	-0.0	-0.0	-0.0	-5.094576358795166	29.215633392333984	-390.3396911621094	4.5847578048706055	-29.350879669189453	-427.6737365722656	-0.0	-0.0	-0.0	-0.0	-0.0	-0.0	100313.6796875	17722.12890625	-3395.325927734375
0.439	-0.0	-0.0	-0.0	-5.021792888641357	28.808305740356445	-390.2638549804688	4.426114559173584	-29.51820945739746	-428.2977600097656	-0.0	-0.0	-0.0	-0.0	-0.0	-0.0	100243.3984375	17725.9375	-3386.05029296875
0.4395	-0.0	-0.0	-0.0	-5.531051635742188	28.668636322021484	-389.5476989746094	4.473384857177734	-29.63840675354004	-425.8020324707031	-0.0	-0.0	-0.0	-0.0	-0.0	-0.0	100408.5	17883.966796875	-3415.711181640625
0.44	-0.0	-0.0	-0.0	-5.29245138168335	28.6011905670166	-388.4129638671875	4.375328540802002	-29.773866653442383	-428.0598754882813	-0.0	-0.0	-0.0	-0.0	-0.0	-0.0	100073.5	17594.5625	-3359.6640625
0.4405	-0.0	-0.0	-0.0	-5.691807746887207	28.432598114013672	-390.0330505371094	4.445077896118164	-29.843233108520508	-427.7107543945313	-0.0	-0.0	-0.0	-0.0	-0.0	-0.0	100107.703125	17696.009765625	-3412.59375
0.441	-0.0	-0.0	-0.0	-4.450787544250488	28.382383346557617	-390.4180603027344	4.562491416931152	-29.98178100585937	-425.9649658203125	-0.0	-0.0	-0.0	-0.0	-0.0	-0.0	99885.6015625	17396.927734375	-3488.742919921875
0.4415	-0.0	-0.0	-0.0	-3.845828533172608	28.22503471374512	-390.8927917480469	5.0469160079956055	-29.75485038757324	-425.0686645507813	-0.0	-0.0	-0.0	-0.0	-0.0	-0.0	99777.90625	17495.970703125	-3418.542724609375
0.442	-0.0	-0.0	-0.0	-3.389999389648437	27.94771957397461	-389.9494934082031	5.174138069152832	-30.06012344360352	-423.6726684570313	-0.0	-0.0	-0.0	-0.0	-0.0	-0.0	99301.484375	17502.67578125	-3266.999755859375
0.4425	-0.0	-0.0	-0.0	-2.884248733520508	27.6900691986084	-389.2042846679688	5.64851188659668	-29.793258666992188	-422.6255187988281	-0.0	-0.0	-0.0	-0.0	-0.0	-0.0	99257.296875	17302.298828125	-3227.240478515625
0.443	-0.0	-0.0	-0.0	-2.7655258178710938	27.54129409790039	-388.8902282714844	5.6968865394592285	-30.019718170166016	-422.0861511230469	-0.0	-0.0	-0.0	-0.0	-0.0	-0.0	98894.984375	17273.091796875	-3220.261474609375
0.4435	-0.0	-0.0	-0.0	-2.7456955909729004	27.65021133422852	-387.5169372558594	5.480595111846924	-30.06814956665039	-422.3584899902344	-0.0	-0.0	-0.0	-0.0	-0.0	-0.0	99155.5703125	17150.45703125	-3148.12744140625
0.444	-0.0	-0.0	-0.0	-2.7061097621917725	27.2441349029541	-386.6540832519531	5.401605129241943	-30.323469161987305	-421.6600036621094	-0.0	-0.0	-0.0	-0.0	-0.0	-0.0	98742.5859375	16939.4921875	-3223.88330078125
0.4445	-0.0	-0.0	-0.0	-2.8248252868652344	27.135486602783203	-385.3982849121094	5.470694065093994	-30.43198776245117	-419.7550354003906	-0.0	-0.0	-0.0	-0.0	-0.0	-0.0	98520.2265625	16942.87890625	-3378.9912109375
0.445	-0.0	-0.0	-0.0	-2.16194224357605	27.36303329467773	-384.9299926757813	5.066344738006592	-30.57911491394043	-419.8349914550781	-0.0	-0.0	-0.0	-0.0	-0.0	-0.0	98257.125	16901.25	-3293.5849609375
0.4455	-0.0	-0.0	-0.0	-2.3194732666015625	26.759164810180664	-384.2994689941406	5.401505947113037	-30.186399459838867	-419.7577819824219	-0.0	-0.0	-0.0	-0.0	-0.0	-0.0	98250.046875	16790.486328125	-3402.012939453125
0.446	-0.0	-0.0	-0.0	-1.922351956367493	26.808130264282227	-385.2395935058594	5.125748634338379	-30.12754249572754	-419.4466857910156	-0.0	-0.0	-0.0	-0.0	-0.0	-0.0	98129.1484375	16342.1328125	-3385.707275390625
0.4465	-0.0	-0.0	-0.0	-1.1395193338394165	26.34220123291016	-383.1202087402344	5.943622589111328	-30.353002548217773	-418.28363037109375	-0.0	-0.0	-0.0	-0.0	-0.0	-0.0	97913.578125	16044.591796875	-3404.886474609375
